<svg xmlns="http://www.w3.org/2000/svg" width="1100" height="650" viewBox="0 0 1100 650">
<defs><marker id="arrow" markerWidth="10" markerHeight="10" refX="8" refY="3" orient="auto" markerUnits="strokeWidth"><path d="M0,0 L0,6 L9,3 z" fill="#1F2933"/></marker></defs>
<rect width="100%" height="100%" fill="white"/>
<text x="550.0" y="34" text-anchor="middle" font-family="Arial" font-size="22" font-weight="700">Component Relationships</text>
<rect x="80" y="90" width="170" height="65" rx="6" fill="#F7F9FB" stroke="#1F2933" stroke-width="1.5"/><text x="165.0" y="127.5" text-anchor="middle" font-family="Arial" font-size="14">core</text>
<rect x="350" y="90" width="170" height="65" rx="6" fill="#F7F9FB" stroke="#1F2933" stroke-width="1.5"/><text x="435.0" y="127.5" text-anchor="middle" font-family="Arial" font-size="14">schema</text>
<rect x="620" y="90" width="170" height="65" rx="6" fill="#F7F9FB" stroke="#1F2933" stroke-width="1.5"/><text x="705.0" y="127.5" text-anchor="middle" font-family="Arial" font-size="14">reliability</text>
<rect x="890" y="90" width="170" height="65" rx="6" fill="#F7F9FB" stroke="#1F2933" stroke-width="1.5"/><text x="975.0" y="127.5" text-anchor="middle" font-family="Arial" font-size="14">transport</text>
<rect x="350" y="250" width="170" height="65" rx="6" fill="#F7F9FB" stroke="#1F2933" stroke-width="1.5"/><text x="435.0" y="287.5" text-anchor="middle" font-family="Arial" font-size="14">benchmark</text>
<rect x="620" y="250" width="170" height="65" rx="6" fill="#F7F9FB" stroke="#1F2933" stroke-width="1.5"/><text x="705.0" y="287.5" text-anchor="middle" font-family="Arial" font-size="14">platform</text>
<line x1="250" y1="122" x2="350" y2="122" stroke="#1F2933" stroke-width="1.5" marker-end="url(#arrow)"/>
<line x1="520" y1="122" x2="620" y2="122" stroke="#1F2933" stroke-width="1.5" marker-end="url(#arrow)"/>
<line x1="790" y1="122" x2="890" y2="122" stroke="#1F2933" stroke-width="1.5" marker-end="url(#arrow)"/>
<line x1="435" y1="250" x2="435" y2="155" stroke="#1F2933" stroke-width="1.5" marker-end="url(#arrow)"/>
<line x1="705" y1="250" x2="890" y2="155" stroke="#1F2933" stroke-width="1.5" marker-end="url(#arrow)"/>
</svg>