<svg xmlns="http://www.w3.org/2000/svg" width="1100" height="650" viewBox="0 0 1100 650">
<defs><marker id="arrow" markerWidth="10" markerHeight="10" refX="8" refY="3" orient="auto" markerUnits="strokeWidth"><path d="M0,0 L0,6 L9,3 z" fill="#1F2933"/></marker></defs>
<rect width="100%" height="100%" fill="white"/>
<text x="550.0" y="34" text-anchor="middle" font-family="Arial" font-size="22" font-weight="700">Packet Format</text>
<rect x="120" y="180" width="160" height="80" rx="6" fill="#EAF7EA" stroke="#1F2933" stroke-width="1.5"/><text x="200.0" y="225.0" text-anchor="middle" font-family="Arial" font-size="14">message_id u16</text>
<rect x="280" y="180" width="190" height="80" rx="6" fill="#F7F9FB" stroke="#1F2933" stroke-width="1.5"/><text x="375.0" y="225.0" text-anchor="middle" font-family="Arial" font-size="14">field 0 bytes</text>
<rect x="470" y="180" width="190" height="80" rx="6" fill="#F7F9FB" stroke="#1F2933" stroke-width="1.5"/><text x="565.0" y="225.0" text-anchor="middle" font-family="Arial" font-size="14">field 1 bytes</text>
<rect x="660" y="180" width="220" height="80" rx="6" fill="#F7F9FB" stroke="#1F2933" stroke-width="1.5"/><text x="770.0" y="225.0" text-anchor="middle" font-family="Arial" font-size="14">variable length fields</text>
<rect x="120" y="350" width="160" height="80" rx="6" fill="#EAF7EA" stroke="#1F2933" stroke-width="1.5"/><text x="200.0" y="395.0" text-anchor="middle" font-family="Arial" font-size="14">message_id u16</text>
<rect x="280" y="350" width="100" height="80" rx="6" fill="#F7F9FB" stroke="#1F2933" stroke-width="1.5"/><text x="330.0" y="395.0" text-anchor="middle" font-family="Arial" font-size="14">0xFD</text>
<rect x="380" y="350" width="130" height="80" rx="6" fill="#F7F9FB" stroke="#1F2933" stroke-width="1.5"/><text x="445.0" y="395.0" text-anchor="middle" font-family="Arial" font-size="14">bitmap size</text>
<rect x="510" y="350" width="160" height="80" rx="6" fill="#F7F9FB" stroke="#1F2933" stroke-width="1.5"/><text x="590.0" y="395.0" text-anchor="middle" font-family="Arial" font-size="14">zero bitmap</text>
<rect x="670" y="350" width="210" height="80" rx="6" fill="#F7F9FB" stroke="#1F2933" stroke-width="1.5"/><text x="775.0" y="395.0" text-anchor="middle" font-family="Arial" font-size="14">remaining body</text>
<text x="120" y="155" font-family="Arial" font-size="15" font-weight="700">Normal packet</text>
<text x="120" y="325" font-family="Arial" font-size="15" font-weight="700">Optimized packet</text>
</svg>